<svg viewBox="0 0 32 32" fill="none" xmlns="http://www.w3.org/2000/svg"><path d="M1.50 20.29C1.48 18.19 1.64 16.09 1.94 14.01C2.21 12.08 2.66 10.47 3.45 8.66C4.12 7.10 5.35 5.49 6.53 4.21C9.05 1.48 13.41 0.37 15.95 0.38C19.55 0.40 23.11 1.89 25.64 4.28C27.25 5.80 28.70 7.93 29.28 10.02C29.96 12.52 30.36 15.09 30.47 17.67C30.54 19.35 30.49 21.04 30.31 22.73C30.13 24.41 29.93 26.01 29.41 27.57C29.33 27.84 29.24 28.10 29.13 28.35C28.67 29.43 27.90 30.51 26.80 31.10C25.59 31.74 24.17 31.53 23.00 30.86C22.69 30.67 22.39 30.45 22.12 30.20C21.60 29.72 21.24 29.10 20.95 28.47C20.85 28.26 20.28 26.59 20.09 26.63C20.04 26.64 20.01 26.70 20.00 26.74C19.54 28.03 19.36 29.57 18.25 30.54C17.33 31.36 15.95 31.73 14.71 31.50C14.55 31.47 14.39 31.43 14.24 31.38C13.49 31.13 12.84 30.65 12.35 30.05C11.97 29.60 11.65 29.06 11.47 28.50C11.28 27.91 11.25 27.27 11.11 26.65C11.10 26.59 11.08 26.52 11.04 26.47C10.79 26.16 10.44 27.20 10.36 27.35C9.86 28.34 9.17 29.32 8.14 29.88C7.16 30.40 5.72 30.58 4.73 29.99C2.98 28.95 2.22 27.13 1.91 25.29C1.65 23.64 1.52 21.96 1.50 20.29Z" fill="#AAE590" style="fill:#AAE590;fill:color(display-p3 0.6667 0.8980 0.5647);fill-opacity:1;"/>
</svg>
