<svg viewBox="0 0 107 108" xmlns="http://www.w3.org/2000/svg"><g><path d="M25.58 101.98c0 1.84-2.13 3.02-3.98 3.02s-3.48-1.98-3.48-3.83 2.47-2.64 4.31-2.64c1.84 0 3.12 1.58 3.12 3.42Z" fill="#d4ffbd" style="fill:#d4ffbd;fill:color(display-p3 0.8392 0.9961 0.7333);"/><path d="M99.91 67.52c1.75-1.48 3.15-1.44 4.33-.02 1.18 1.41 1.26 3.29-.42 4.69 -1.75 1.45-3.52.99-4.7-.42 -1.19-1.42-1-2.78.78-4.27h-.01Z" fill="#d4ffbd" style="fill:#d4ffbd;fill:color(display-p3 0.8392 0.9961 0.7333);"/><path d="M53.53 100.962c-1.01 0-2.15-.19-3.4-.68 -2.62-1.03-4.21-3.13-5.2-5.35 -.83 1.37-1.95 2.62-3.45 3.42 -1.37.73-3.64 1.37-6.7.28 -1.89-.68-4.08-2.39-5.49-6.49 -.87.93-1.86 1.68-2.96 2.18 -2.46 1.13-5.09.92-7.41-.58 -2.96-1.91-4.72-5.75-5.57-12.08 -.57-4.21-.94-7.52-1.04-14.78 -.09-6.05.25-11.58 1.13-18.48 .73-5.73 2.01-10.68 4.17-16.07 2.27-5.7 6.36-10.96 8.6-13.58C33.68 9.97 46.26 6.81 53 6.81c.04 0 .09 0 .13 0 3.6.02 10.8.71 18.58 5.12 7.72 4.37 13.62 11.02 17.54 19.79 2.24 4.91 3.65 10.62 4.16 16.95 .96 11.94.83 21.76-.44 32.82 -.97 8.37-2.75 16.24-9.2 17.17 -3.55.5-5.91-1.15-7.5-3.29 -.78 1.76-1.83 3.14-3.15 4.07 -1.32.92-3.57 1.87-6.81 1.12 -2.78-.65-4.46-2.23-5.56-4.31 -.95 1.62-2.19 2.88-3.66 3.67 -.9.47-2.13.91-3.67.91h0Z" fill="#FBFCFF" style="fill:#FBFCFF;fill:color(display-p3 0.9843 0.9882 1.0000);"/><path d="M47.81 36.34c-2.25 6.23-14.01 12.83-30.43 12.67 -.5 0-1.01-.01-1.53-.02 0 0 .92-5.32 2.18-10.22 1.26-4.9 3.82-9.99 3.82-9.99 8.16-3.92 17.25-6 23.15-1.97 3.01 2.25 4.21 5.84 2.8 9.47l-.02.03Z" fill="#d4ffbd" style="fill:#d4ffbd;fill:color(display-p3 0.8392 0.9961 0.7333);"/><path d="M90.43 46.41c-3.17.64-6.49 1.05-9.54 1.04 -8.63.2-19.19-3.63-20.92-12.31 -.47-2.7.32-5.3 2.14-7.36 2.37-2.68 6.48-3.73 11.09-3.82 3.52.01 6.71.53 10 1.52 0 0 3.52 6.33 4.87 9.98 1.35 3.65 2.33 10.92 2.33 10.92v0Z" fill="#d4ffbd" style="fill:#d4ffbd;fill:color(display-p3 0.8392 0.9961 0.7333);"/><path d="M47.81 36.34c-2.25 6.23-14.01 12.83-30.43 12.67 -2.22-.01-4.63-.12-7.11-.33 -.44-.05-.89-.16-1.27-.34 -4.58-2.47.02-11.48 2.5-13.38 9.41-6.87 24.87-14.05 33.49-8.16 3.01 2.25 4.21 5.84 2.8 9.47l-.02.03h-.01Z" fill="#d4ffbd" style="fill:#d4ffbd;fill:color(display-p3 0.8392 0.9961 0.7333);"/><path d="M100.667 40.39c-.44 3.95-4.48 4.5-7.8 5.46 -3.86.95-8.14 1.6-11.97 1.59 -8.63.2-19.19-3.63-20.92-12.31 -.47-2.7.32-5.3 2.14-7.36 2.37-2.68 6.48-3.73 11.09-3.82 6.82.02 12.43 1.96 19.87 5.52 3.81 1.99 7.73 6.35 7.57 10.87v.03l-.01-.01Z" fill="#d4ffbd" style="fill:#d4ffbd;fill:color(display-p3 0.8392 0.9961 0.7333);"/><path d="M21.61 106.57c-2.64 0-5.04-2.57-5.04-5.39s2.95-4.19 5.87-4.19c2.62 0 4.68 2.18 4.68 4.98 0 2.2-2.12 4.58-5.53 4.58Zm.84-6.46c-1.47 0-2.77.6-2.77 1.07 0 1.05 1.02 2.26 1.91 2.26 1.08 0 2.41-.68 2.41-1.47 0-.91-.55-1.87-1.57-1.87Z" fill="#316c1d" style="fill:#316c1d;fill:color(display-p3 0.2078 0.4196 0.1059);"/><path d="M101.624 74.51c-1.31 0-2.58-.62-3.58-1.82 -1.01-1.2-2.22-3.61.95-6.26 1.09-.92 3.9-2.74 6.32.15 .83.99 1.25 2.17 1.19 3.33 -.07 1.27-.69 2.43-1.79 3.36 -.98.81-2.06 1.22-3.12 1.22Zm-.81-5.9c-1.48 1.23-1.06 1.73-.61 2.26 .81.97 1.72 1.05 2.7.24 .49-.42.75-.87.77-1.34 .02-.45-.17-.93-.54-1.38 -.43-.51-.87-1.04-2.34.19h-.01Z" fill="#316c1d" style="fill:#316c1d;fill:color(display-p3 0.2078 0.4196 0.1059);"/><path d="M15.31 97.379c0 1.16-1.17 1.92-2.19 1.92s-1.91-1.26-1.91-2.43c0-1.17 1.35-1.67 2.37-1.67 1.01 0 1.71 1 1.71 2.16h0Z" fill="#316c1d" style="fill:#316c1d;fill:color(display-p3 0.2078 0.4196 0.1059);"/><path d="M53.53 101.103c-1.03 0-2.18-.19-3.45-.69 -2.57-1.01-4.16-3.02-5.17-5.18 -.83 1.3-1.92 2.47-3.36 3.25 -1.4.74-3.71 1.4-6.81.29 -1.89-.68-4.07-2.36-5.5-6.35 -.84.86-1.8 1.56-2.84 2.05 -2.47 1.13-5.22.92-7.55-.59 -2.99-1.93-4.78-5.8-5.63-12.18 -.57-4.22-.94-7.52-1.04-14.8 -.09-6.06.25-11.59 1.13-18.5 .73-5.74 2.02-10.7 4.18-16.1 2.28-5.72 6.38-10.99 8.62-13.62 7.5-8.82 20.14-11.99 26.9-11.99 .04 0 .09 0 .13 0 3.61.02 10.85.72 18.656 5.14 7.74 4.38 13.66 11.06 17.59 19.85 2.25 4.92 3.66 10.65 4.17 17 .96 11.95.83 21.78-.44 32.85 -.97 8.42-2.77 16.35-9.32 17.29 -3.51.5-5.88-1.07-7.49-3.15 -.78 1.68-1.82 3-3.1 3.91 -1.34.94-3.63 1.91-6.92 1.14 -2.74-.64-4.42-2.15-5.54-4.16 -.95 1.54-2.16 2.74-3.58 3.5 -.91.48-2.17.93-3.74.93l0 0Zm-5.09-13.18c.54 3.22 1.4 6.61 3.6 7.47 1.05.41 1.93.41 2.67.02 1.18-.64 2.17-2.33 2.65-4.54 .43-2 1.08-5.03 3.74-4.99 .39 0 2.4.16 2.88 2.78 1.08 5.87 2.12 6.54 3.58 6.88 1.63.37 2.36-.14 2.6-.31 1.13-.8 1.95-2.84 2.27-5.59 .21-1.85.5-4.39 2.97-4.58 .39-.04 2.37-.07 3.07 2.43 1.6 5.65 3.16 6.24 4.6 6.03 2.27-.33 3.77-4.33 4.72-12.59 1.22-10.71 1.35-20.22.42-31.81 -.47-5.73-1.72-10.85-3.72-15.22C75.25 13.24 56.72 12.08 53.1 12.06c-5.503-.05-16.6 2.67-22.92 10.09 -3.51 4.11-6.25 8.42-7.73 12.12 -2.02 5.02-3.16 9.44-3.85 14.77 -.85 6.64-1.18 11.94-1.1 17.73 .09 6.97.45 10.13.99 14.15 .6 4.5 1.71 7.39 3.21 8.36 .79.51 1.57.58 2.37.21 1.29-.6 2.76-2.46 3.15-5.28 0-.04 0-.07.01-.1l.06-.37c.03-.23.07-.44.1-.61 .37-2.07 1.57-2.62 2.52-2.72 1.16-.13 2.24.5 2.75 1.56 .1.2.32.73.38 1.95 .31 5.15 1.67 9.03 3.39 9.64 1.5.53 2.22.15 2.46.02 1.06-.57 2.03-2.27 2.6-4.53 .01-.05.02-.09.03-.13 .04-.15.11-.42.17-.69 .13-.55.29-1.16.47-1.7 .79-2.35 2.32-2.62 3.16-2.57 2.45.14 2.83 2.73 2.96 3.77l-.01-.01Z" fill="#316c1d" style="fill:#316c1d;fill:color(display-p3 0.2078 0.4196 0.1059);"/><path d="M17.12 49.13c-2.11 0-4.34-.09-6.69-.26 -.86-.07-1.51-.81-1.44-1.67 .06-.86.8-1.51 1.66-1.44 23.18 1.72 32.48-5.84 34.32-10.58 .88-2.27.35-4.38-1.43-5.79 -4.45-3.5-15.53-2.43-30.26 7.84 -.71.49-1.68.32-2.17-.39 -.5-.71-.32-1.68.38-2.17 7.61-5.31 14.65-8.59 20.94-9.75 5.45-1.02 10.07-.3 13.01 2.01 2.89 2.27 3.79 5.77 2.4 9.35 -2.41 6.19-11.89 12.81-30.79 12.81h0Z" fill="#316c1d" style="fill:#316c1d;fill:color(display-p3 0.2078 0.4196 0.1059);"/><path d="M80.62 47.52c-2.43 0-4.71-.23-6.84-.67 -5.58-1.16-9.95-3.82-12.32-7.48 -2.51-3.87-2.32-8.4.47-11.55 2.37-2.69 6.41-4.13 11.37-4.09 5.65.05 12.32 1.94 19.82 5.6 .77.37 1.09 1.31.71 2.08 -.38.77-1.32 1.09-2.09.71 -6.99-3.41-13.38-5.24-18.49-5.29 -.08 0-.15 0-.22 0 -3.95 0-7.07 1.07-8.8 3.03 -1.87 2.09-1.94 5.08-.19 7.78 1.91 2.95 5.58 5.12 10.33 6.11 5.95 1.23 13.39.54 21.52-2 .82-.26 1.69.2 1.95 1.02 .25.82-.21 1.69-1.03 1.95 -5.8 1.81-11.31 2.73-16.26 2.73l-.01 0Z" fill="#316c1d" style="fill:#316c1d;fill:color(display-p3 0.2078 0.4196 0.1059);"/><path d="M64.7 58.44c-8.95 0-19.71-2.26-22.36-3.24 -.52-.19-.78-.76-.59-1.28 .18-.52.75-.78 1.27-.59 2.94 1.08 16.21 3.78 25.32 2.95 .54-.06 1.02.35 1.07.89 .04.54-.36 1.02-.9 1.07 -1.22.11-2.51.16-3.83.16Z" fill="#316c1d" style="fill:#316c1d;fill:color(display-p3 0.2078 0.4196 0.1059);"/><path d="M48.92 41.2s.35-.05 5.11.08c4.75.12 5.29.49 5.29.49 .58.03.88.63.66 1.17 -.76 1.84-2.97 4.71-6.13 4.34 -3.06-.36-5.04-3.19-5.72-4.95 -.23-.57.15-1.19.76-1.15Z" fill="#316c1d" style="fill:#316c1d;fill:color(display-p3 0.2078 0.4196 0.1059);"/><path d="M29.804 37.53c-.07 0-.14-.01-.21-.03 -.54-.12-.88-.64-.77-1.18 .48-2.314 2.18-3.82 4.32-3.83h.01c2.02 0 3.78 1.34 4.18 3.19 .11.53-.23 1.06-.76 1.18 -.54.11-1.07-.23-1.19-.76 -.24-1.08-1.31-1.64-2.25-1.64h-.01c-.58 0-1.98.22-2.4 2.24 -.1.46-.51.78-.97.78Z" fill="#316c1d" style="fill:#316c1d;fill:color(display-p3 0.2078 0.4196 0.1059);"/><path d="M74.88 36.96s-.02 0-.02 0c-.55-.02-.99-.47-.98-1.02 .02-1.11-.9-1.91-1.82-2.12 -.57-.14-1.97-.24-2.86 1.62 -.24.49-.83.7-1.32.47 -.5-.24-.71-.83-.48-1.32 1.01-2.14 3.01-3.21 5.09-2.71 1.97.46 3.38 2.18 3.34 4.08 -.02.54-.46.97-1 .97l0-.01Z" fill="#316c1d" style="fill:#316c1d;fill:color(display-p3 0.2078 0.4196 0.1059);"/></g></svg>