<svg viewBox="0 0 107 107" xmlns="http://www.w3.org/2000/svg"><g><path d="M18.41 103.49c-2.41 0-4.68-2.45-4.68-5.03 0-2.59 2.77-3.84 5.52-3.84 2.43 0 4.33 2.03 4.33 4.63 0 2.59-2.68 4.23-5.18 4.23Zm.84-6.46c-1.47 0-3.12.61-3.12 1.42 0 1.27 1.16 2.61 2.27 2.61 1.28 0 2.76-.8 2.76-1.83s-.68-2.23-1.93-2.23Z" fill="#121414" style="fill:#121414;fill:color(display-p3 0.0706 0.0784 0.0784);"/><path d="M97.21 79.13c-1.08-.63-1.84-1.74-2.1-3.22 -.26-1.47-.11-4.02 3.78-4.7 3.89-.69 4.9 1.66 5.15 3.12 .21 1.21-.01 2.4-.61 3.33 -.67 1.02-1.73 1.68-3.09 1.92 -1.2.21-2.29.02-3.16-.48l0-.01Zm2.1-5.54c-1.95.34-1.99 1.03-1.84 1.9 .16.95.73 2.03 2.46 1.73 .69-.13 1.19-.42 1.48-.87 .27-.43.35-.98.25-1.61 -.15-.85-.43-1.52-2.38-1.18Z" fill="#121414" style="fill:#121414;fill:color(display-p3 0.0706 0.0784 0.0784);"/><path d="M53.37 99.11c-.94 0-1.92-.2-2.91-.59 -3.39-1.33-4.81-4.92-5.51-7.84 -.7 2.22-1.96 4.75-4.26 5.98 -1.64.87-3.53.94-5.61.2 -3.12-1.12-4.64-4.8-5.38-8.36 -.98 1.87-2.4 3.33-4.08 4.1 -2.03.93-4.2.75-6.12-.49 -2.6-1.68-4.18-5.21-4.97-11.12 -.56-4.17-.93-7.43-1.03-14.62 -.09-5.99.25-11.46 1.12-18.29 .72-5.68 1.94-10.39 4.08-15.74 2.2-5.52 6.19-10.65 8.38-13.21C34.25 10.7 46.36 7.66 52.85 7.66c.04 0 .08 0 .13 0 3.47.02 10.41.69 17.93 4.94 7.46 4.22 13.17 10.67 16.97 19.17 2.18 4.77 3.55 10.33 4.04 16.51 .95 11.85.82 21.59-.44 32.56 -.58 5.04-1.35 8.53-2.42 10.98 -1.32 3.01-3.16 4.65-5.64 5 -4.19.6-6.42-2.37-7.68-5.23 -.64 2.9-1.85 5.04-3.56 6.25 -1.59 1.11-3.52 1.42-5.73.91 -3.25-.76-4.78-2.94-5.8-6.63 -.83 2.88-2.36 5.03-4.36 6.11 -.94.5-1.96.75-3.03.75l0 0ZM46.8 87.65c.64 3.82 1.64 7.5 4.53 8.63 1.46.57 2.78.55 3.91-.06 1.58-.85 2.82-2.87 3.4-5.53 .69-3.23 1.34-3.83 2.27-3.82 .43 0 1.19.21 1.44 1.56 1.02 5.57 2.12 7.46 4.71 8.06 1.53.35 2.78.18 3.79-.54 1.52-1.08 2.52-3.37 2.89-6.64 .19-1.7.36-3.17 1.61-3.27 .5-.04 1.18.15 1.52 1.35 1.54 5.46 3.35 7.51 6.24 7.1 3.13-.45 4.92-4.6 5.99-13.89 1.24-10.81 1.36-20.41.42-32.1 -.48-5.9-1.77-11.19-3.85-15.72 -9.61-21.48-28.96-22.69-32.74-22.71 -6-.05-17.37 2.75-24.06 10.61 -2.09 2.45-5.9 7.34-7.98 12.53 -2.06 5.14-3.24 9.67-3.94 15.14 -.86 6.71-1.19 12.08-1.11 17.948 .09 7.05.46 10.25 1 14.33 .67 5.08 1.94 8.16 3.88 9.41 1.22.79 2.53.89 3.8.31 2.02-.94 3.59-3.46 4-6.43 0-.02 0-.03 0-.05l.06-.37c.03-.22.07-.42.09-.58 .09-.49.25-1.41 1.21-1.51 .54-.06 1.05.25 1.27.77 .15.39.2 1.11.22 1.33 .36 6.01 2 10.12 4.38 10.97 1.43.5 2.63.49 3.66-.07 1.98-1.07 2.94-3.89 3.34-5.47 0-.02.01-.04.01-.06 .05-.18.12-.46.19-.76 .45-1.8.81-3.22 2.1-3.15 1.26.07 1.46 1.58 1.58 2.5h-.01Z" fill="#121414" style="fill:#121414;fill:color(display-p3 0.0706 0.0784 0.0784);"/><path d="M16.46 48.289c-2.63 0-5.36-.13-8.18-.38 -.67-.06-1.15-.65-1.1-1.31 .05-.66.64-1.15 1.3-1.1 10.4.93 19.49.09 26.29-2.44 5.33-1.99 9.13-5.01 10.42-8.28 .92-2.37.38-4.56-1.49-6.02 -4.86-3.77-17.05-2.3-33.35 9.47 -.54.38-1.3.26-1.68-.28 -.39-.54-.27-1.3.27-1.68 8.14-5.88 15.97-9.74 22.64-11.15 5.76-1.22 10.59-.61 13.58 1.71 2.73 2.12 3.58 5.41 2.25 8.79 -.91 2.29-3.65 6.6-11.83 9.65 -5.27 1.95-11.8 2.95-19.18 2.95h-.01Z" fill="#121414" style="fill:#121414;fill:color(display-p3 0.0706 0.0784 0.0784);"/><path d="M80.58 46.66c-9.76 0-15.99-3.58-18.77-7.78 -1.21-1.81-1.81-3.8-1.75-5.74 .06-1.99.81-3.83 2.15-5.35 2.43-2.74 6.64-4.16 11.83-4.01 6.04.17 13.17 2.33 21.2 6.43 .59.3.82 1.02.52 1.62 -.31.59-1.03.82-1.62.52 -10.4-5.31-24.54-9.28-30.16-2.98 -1.99 2.22-2.07 5.34-.21 8.14 2.06 3.11 6.04 5.32 11.19 6.23 6.43 1.13 14.46.14 23.23-2.85 .62-.22 1.31.12 1.52.75 .21.62-.13 1.31-.76 1.52 -7.15 2.43-13.3 3.44-18.45 3.44h0Z" fill="#121414" style="fill:#121414;fill:color(display-p3 0.0706 0.0784 0.0784);"/><path d="M56.63 59.58c-7.78-.5-13.51-1.5-18.25-2.49 -.65-.14-1.07-.78-.94-1.43 .13-.65.77-1.07 1.42-.94 6.86 1.43 15.83 2.88 30.29 2.75 .65-.01 1.2.52 1.21 1.19 0 .66-.53 1.2-1.2 1.21 -4.73.04-8.87-.09-12.56-.33Z" fill="#121414" style="fill:#121414;fill:color(display-p3 0.0706 0.0784 0.0784);"/><path d="M54.17 47.58c-.2 0-.4-.02-.61-.04 -3.28-.39-5.26-3.34-5.91-5.02 -.25-.64-.16-1.33.23-1.87 .36-.5.93-.79 1.56-.77 .51-.02 1.99 0 4.42.07 3.12.08 4.31.28 4.82.45 .51.09.96.38 1.24.83 .33.53.39 1.2.14 1.8 -.93 2.24-3.14 4.51-5.92 4.51l-.01-.01Zm-3.96-5.28c.61 1.13 1.86 2.63 3.63 2.84 1.84.21 3.18-1.45 3.77-2.52 -.47-.08-1.54-.2-3.81-.27 -1.95-.06-3.02-.08-3.61-.08l0 0Z" fill="#121414" style="fill:#121414;fill:color(display-p3 0.0706 0.0784 0.0784);"/><path d="M29.64 37.24c-.09 0-.17-.01-.25-.03 -.66-.14-1.07-.78-.93-1.43 .5-2.42 2.28-3.98 4.53-3.99H33c2.12 0 3.96 1.41 4.39 3.36 .14.64-.27 1.29-.93 1.43 -.65.14-1.3-.27-1.44-.93 -.22-.97-1.19-1.47-2.05-1.47h-.01c-.53 0-1.8.2-2.19 2.07 -.12.56-.63.95-1.18.95l0-.01Z" fill="#121414" style="fill:#121414;fill:color(display-p3 0.0706 0.0784 0.0784);"/><path d="M74.72 36.68s-.02 0-.03 0c-.67-.02-1.2-.57-1.18-1.23 .01-1-.82-1.72-1.66-1.91 -.52-.13-1.8-.22-2.62 1.5 -.29.6-1.01.85-1.61.57 -.61-.29-.86-1.01-.58-1.61 1.05-2.23 3.15-3.34 5.33-2.83 2.07.48 3.54 2.29 3.5 4.29 -.02.65-.55 1.18-1.21 1.18Z" fill="#121414" style="fill:#121414;fill:color(display-p3 0.0706 0.0784 0.0784);"/><path fill-rule="evenodd" d="M10.67 90.09c-.02 0-.03 0-.05 0 -.64.11-.86.28-.93.37 -.05.05-.13.18-.06.58l0 0c.06.39.23.64.4.77 .15.11.42.22.91.14m-.29-1.9c.58-.1.85-.02.95.04 .06.03.18.13.25.52 .06.38-.01.67-.13.86 -.12.17-.35.36-.8.44m-.73-3.85c.01-.01.03-.01.05-.02 .82-.15 1.65-.13 2.34.27 .72.42 1.08 1.14 1.22 1.91 .13.78.03 1.6-.42 2.29 -.46.7-1.21 1.17-2.14 1.33l-.01 0c-.95.16-1.81-.02-2.49-.54 -.66-.51-1.02-1.26-1.15-2.02 -.14-.77-.06-1.56.48-2.21 .5-.61 1.25-.91 2.06-1.06Z" fill="#121414" style="fill:#121414;fill:color(display-p3 0.0706 0.0784 0.0784);"/></g></svg>