<svg width="107" height="108" viewBox="0 0 107 108" fill="none" xmlns="http://www.w3.org/2000/svg">
<path d="M25.5869 101.987C25.5869 103.831 23.4571 105.015 21.6161 105.015C19.7751 105.015 18.1409 103.035 18.1409 101.191C18.1409 99.3472 20.6191 98.5598 22.4601 98.5598C24.3011 98.5598 25.5869 100.143 25.5869 101.987Z" fill="#d4ffbd" style="fill:#d4ffbd;fill:color(display-p3 0.8392 0.9961 0.7333);fill-opacity:1;"/>
<path d="M99.9108 67.5297C101.67 66.0569 103.063 66.0966 104.247 67.5099C105.431 68.9232 105.513 70.801 103.831 72.2086C102.086 73.6672 100.313 73.2055 99.1319 71.7922C97.9481 70.379 98.1322 69.0195 99.9136 67.5297H99.9108Z" fill="#d4ffbd" style="fill:#d4ffbd;fill:color(display-p3 0.8392 0.9961 0.7333);fill-opacity:1;"/>
<path d="M53.5381 100.962C52.5327 100.962 51.3969 100.772 50.1451 100.285C47.5252 99.2593 45.942 97.1635 44.9479 94.9373C44.1209 96.3138 43.0078 97.5628 41.501 98.3672C40.1331 99.0979 37.8616 99.7436 34.8084 98.6561C32.9221 97.9848 30.7356 96.2741 29.3224 92.1759C28.4614 93.1105 27.4644 93.8582 26.3712 94.3624C23.9156 95.4924 21.2844 95.2885 18.962 93.7902C16.0108 91.8841 14.2435 88.0493 13.3966 81.7192C12.8358 77.5105 12.4591 74.2081 12.3572 66.9433C12.2722 60.8936 12.6121 55.3679 13.4957 48.4686C14.2265 42.7474 15.5151 37.7938 17.6705 32.4069C19.9476 26.714 24.0402 21.4545 26.2749 18.8291C33.7463 10.0519 46.3329 6.89111 53.0736 6.89111C53.1189 6.89111 53.1642 6.89111 53.2096 6.89111C56.8122 6.91377 64.0174 7.61051 71.7976 12.0118C79.5183 16.382 85.4208 23.0406 89.3378 31.8064C91.5866 36.7176 92.9885 42.4302 93.4983 48.7631C94.4613 60.7096 94.331 70.5261 93.0593 81.5889C92.0964 89.961 90.3177 97.8375 83.8658 98.7608C80.3255 99.2678 77.9578 97.6166 76.3717 95.4754C75.6013 97.2428 74.5421 98.6192 73.2222 99.551C71.9081 100.48 69.6593 101.429 66.4163 100.678C63.6407 100.035 61.9612 98.4578 60.8566 96.3704C59.9078 97.999 58.6701 99.2565 57.203 100.044C56.3109 100.523 55.0732 100.962 53.5353 100.962H53.5381Z" fill="#FBFCFF" style="fill:#FBFCFF;fill:color(display-p3 0.9843 0.9882 1.0000);fill-opacity:1;"/>
<path d="M47.8142 36.3494C45.5739 42.5804 33.8116 49.188 17.3902 49.0237C16.8917 49.0237 16.3819 49.0152 15.8636 49.0039C15.8636 49.0039 16.7897 43.6878 18.0529 38.7908C19.3161 33.8939 21.8736 28.8015 21.8736 28.8015C30.0418 24.8901 39.1305 22.8084 45.0244 26.8359C48.0351 29.0932 49.2417 32.6845 47.8284 36.3126L47.8142 36.3494Z" fill="#d4ffbd" style="fill:#d4ffbd;fill:color(display-p3 0.8392 0.9961 0.7333);fill-opacity:1;"/>
<path d="M90.4336 46.4154C87.2643 47.0612 83.9478 47.4662 80.9003 47.4577C72.2789 47.6673 61.7146 43.8352 59.9813 35.1487C59.5196 32.4581 60.307 29.8524 62.1253 27.7905C64.4959 25.1112 68.6083 24.0605 73.2192 23.9727C76.7397 23.9868 79.9373 24.508 83.2284 25.4992C83.2284 25.4992 86.7489 31.8378 88.1027 35.4886C89.4565 39.1394 90.4336 46.4126 90.4336 46.4126V46.4154Z" fill="#d4ffbd" style="fill:#d4ffbd;fill:color(display-p3 0.8392 0.9961 0.7333);fill-opacity:1;"/>
<path d="M47.8144 36.3496C45.5741 42.5805 33.8118 49.1881 17.3904 49.0239C15.1755 49.0154 12.7653 48.9106 10.2899 48.701C9.85091 48.6557 9.40625 48.5481 9.02106 48.3696C4.44131 45.9056 9.04938 36.8962 11.5304 34.9901C20.942 28.1247 36.4033 20.9421 45.0275 26.836C48.0382 29.0933 49.2447 32.6846 47.8314 36.3127L47.8172 36.3496H47.8144Z" fill="#d4ffbd" style="fill:#d4ffbd;fill:color(display-p3 0.8392 0.9961 0.7333);fill-opacity:1;"/>
<path d="M100.667 40.3997C100.23 44.3535 96.1888 44.903 92.8694 45.866C89.0118 46.8204 84.738 47.469 80.9003 47.4577C72.2789 47.6673 61.7146 43.8352 59.9813 35.1487C59.5196 32.4581 60.307 29.8524 62.1253 27.7905C64.4959 25.1112 68.6083 24.0605 73.2192 23.9727C80.0421 23.9981 85.6528 25.9354 93.0903 29.4927C96.9053 31.4895 100.822 35.8511 100.669 40.3629V40.4025L100.667 40.3997Z" fill="#d4ffbd" style="fill:#d4ffbd;fill:color(display-p3 0.8392 0.9961 0.7333);fill-opacity:1;"/>
<path d="M21.6133 106.572C18.9793 106.572 16.5804 104.009 16.5804 101.191C16.5804 98.3728 19.5373 97.002 22.4573 97.002C25.0856 97.002 27.1419 99.1913 27.1419 101.987C27.1419 104.193 25.029 106.572 21.6133 106.572ZM22.4573 100.117C20.9959 100.117 19.6959 100.718 19.6959 101.191C19.6959 102.25 20.7183 103.457 21.6133 103.457C22.7009 103.457 24.0264 102.777 24.0264 101.987C24.0264 101.08 23.4769 100.117 22.4573 100.117Z" fill="#316c1d" style="fill:#316c1d;fill:color(display-p3 0.2078 0.4196 0.1059);fill-opacity:1;"/>
<path d="M101.624 74.5169C100.321 74.5169 99.0495 73.9051 98.0441 72.7014C97.0415 71.5034 95.8321 69.096 99.0014 66.4421C100.097 65.5245 102.907 63.7034 105.331 66.6007C106.161 67.592 106.586 68.7731 106.527 69.9343C106.462 71.2088 105.844 72.3729 104.74 73.2962C103.762 74.1147 102.683 74.5169 101.624 74.5169ZM100.82 68.6173C99.3469 69.8493 99.7689 70.3535 100.216 70.8859C101.035 71.8631 101.944 71.9452 102.921 71.1267C103.414 70.716 103.675 70.2657 103.7 69.7927C103.723 69.3509 103.53 68.8637 103.162 68.4219C102.734 67.9121 102.295 67.3853 100.823 68.6173H100.82Z" fill="#316c1d" style="fill:#316c1d;fill:color(display-p3 0.2078 0.4196 0.1059);fill-opacity:1;"/>
<path d="M15.3166 97.379C15.3166 98.5459 14.1469 99.2992 13.1358 99.2992C12.1247 99.2992 11.2269 98.0446 11.2269 96.8777C11.2269 95.7108 12.5863 95.2095 13.5975 95.2095C14.6086 95.2095 15.3138 96.2121 15.3138 97.379H15.3166Z" fill="#316c1d" style="fill:#316c1d;fill:color(display-p3 0.2078 0.4196 0.1059);fill-opacity:1;"/>
<path d="M53.5381 101.103C52.5157 101.103 51.3629 100.913 50.0941 100.415C47.5252 99.4094 45.942 97.4014 44.9281 95.2375C44.1067 96.5432 43.0135 97.7158 41.569 98.4918C40.1756 99.2367 37.8644 99.8937 34.7603 98.7892C32.8768 98.1179 30.6988 96.4327 29.2657 92.4393C28.4302 93.3088 27.4729 94.0083 26.4278 94.4898C23.9637 95.6227 21.2136 95.4103 18.8827 93.9064C15.8947 91.9776 14.1047 88.1088 13.255 81.7362C12.6914 77.5218 12.3175 74.2166 12.2156 66.9433C12.1306 60.8852 12.4705 55.3538 13.3541 48.4487C14.0877 42.7163 15.3764 37.7513 17.5374 32.3531C19.823 26.6404 23.9241 21.3696 26.1672 18.7356C33.6699 9.92163 46.3074 6.74951 53.0736 6.74951C53.1189 6.74951 53.1643 6.74951 53.2096 6.74951C56.8264 6.77217 64.0599 7.47173 71.8656 11.89C79.6146 16.2744 85.5341 22.9585 89.4652 31.7498C91.7197 36.6751 93.1273 42.4019 93.6371 48.7518C94.6029 60.7067 94.4698 70.5318 93.1981 81.6031C92.2295 90.0319 90.431 97.9622 83.8857 98.8968C80.3794 99.4009 78.0088 97.8319 76.4 95.7502C75.6297 97.4354 74.5874 98.7552 73.3044 99.6643C71.9676 100.61 69.6791 101.576 66.3852 100.814C63.6549 100.183 61.9697 98.6674 60.851 96.6565C59.9078 98.2029 58.6956 99.4009 57.271 100.166C56.3619 100.653 55.1015 101.1 53.5353 101.1L53.5381 101.103ZM48.4542 87.9303C49.0008 91.1506 49.859 94.5436 52.0568 95.4046C53.1133 95.8182 53.9884 95.8238 54.7305 95.4273C55.9115 94.7929 56.9028 93.0992 57.3815 90.8957C57.8148 88.8961 58.4662 85.8685 61.1314 85.9138C61.5279 85.9194 63.536 86.0837 64.0174 88.6979C65.0994 94.5776 66.1388 95.2404 67.6031 95.5802C69.2401 95.9598 69.9652 95.4471 70.2059 95.2772C71.3388 94.4785 72.1658 92.4421 72.4802 89.6892C72.6926 87.8397 72.9815 85.3077 75.4512 85.1094C75.8421 85.0782 77.8218 85.0471 78.5299 87.5395C80.1301 93.1983 81.6907 93.7846 83.1323 93.5778C85.4094 93.2521 86.9105 89.253 87.8593 80.997C89.0885 70.2911 89.216 60.7804 88.2813 49.1908C87.8197 43.4668 86.5707 38.3489 84.5683 33.9731C75.3323 13.3203 56.8009 12.1591 53.1784 12.1365C47.6754 12.0911 36.5843 14.8101 30.2683 22.2306C26.7648 26.3459 24.0204 30.6537 22.5391 34.3583C20.5282 39.3827 19.3812 43.8039 18.6986 49.137C17.8489 55.7786 17.5204 61.0834 17.6025 66.8754C17.6988 73.8512 18.0585 77.0092 18.5966 81.031C19.1971 85.5342 20.3073 88.4231 21.8084 89.3918C22.6043 89.9044 23.3831 89.9752 24.1875 89.607C25.479 89.0122 26.9546 87.1515 27.3398 84.3362C27.3455 84.305 27.3483 84.2739 27.354 84.2427L27.4163 83.8802C27.4531 83.6536 27.4899 83.4469 27.5211 83.2769C27.8977 81.2151 29.0986 80.6599 30.0418 80.5636C31.2058 80.439 32.2906 81.0649 32.7919 82.1242C32.8938 82.3338 33.1119 82.8634 33.1771 84.0756C33.4886 89.2275 34.8566 93.1134 36.5758 93.7251C38.0854 94.2633 38.8019 93.8809 39.037 93.7534C40.1019 93.1842 41.0762 91.4933 41.6427 89.2332C41.654 89.1907 41.6653 89.1482 41.6766 89.1057C41.7191 88.9641 41.7899 88.6894 41.8551 88.4231C41.991 87.8822 42.1468 87.2676 42.3281 86.7266C43.1239 84.3787 44.6505 84.1125 45.4889 84.1606C47.9444 84.305 48.3211 86.8909 48.4571 87.936L48.4542 87.9303Z" fill="#316c1d" style="fill:#316c1d;fill:color(display-p3 0.2078 0.4196 0.1059);fill-opacity:1;"/>
<path d="M17.1265 49.1398C15.0165 49.1398 12.7932 49.0577 10.4452 48.8821C9.58704 48.817 8.94412 48.0721 9.00643 47.2139C9.06874 46.3557 9.81362 45.7128 10.6746 45.7751C33.8623 47.5028 43.1634 39.9378 45.0043 35.1967C45.8852 32.928 45.364 30.8208 43.5769 29.416C39.1303 25.921 28.0533 26.9916 13.3256 37.2585C12.6204 37.7513 11.6489 37.5786 11.1561 36.8705C10.6633 36.1653 10.8389 35.1938 11.5441 34.701C19.1544 29.3962 26.201 26.1165 32.4886 24.9524C37.9435 23.9413 42.5658 24.6578 45.5028 26.9661C48.4002 29.2433 49.298 32.7411 47.9074 36.3239C45.5057 42.5152 36.0233 49.1398 17.1237 49.1398H17.1265Z" fill="#316c1d" style="fill:#316c1d;fill:color(display-p3 0.2078 0.4196 0.1059);fill-opacity:1;"/>
<path d="M80.6285 47.5283C78.2069 47.5283 75.9185 47.3074 73.7943 46.8656C68.2232 45.7072 63.8502 43.0505 61.4825 39.3884C58.9788 35.5196 59.1629 30.9908 61.9526 27.8442C64.3317 25.1621 68.3705 23.7148 73.3269 23.7573C78.9773 23.8111 85.6472 25.6973 93.1499 29.3594C93.9231 29.7361 94.2431 30.6708 93.8664 31.444C93.4897 32.2172 92.5551 32.5372 91.7847 32.1605C84.8004 28.7505 78.408 26.9237 73.2986 26.8727C73.2278 26.8727 73.157 26.8727 73.0862 26.8727C69.1437 26.8727 66.0254 27.949 64.2864 29.9117C62.4256 32.0104 62.3548 34.9928 64.1023 37.6948C66.0141 40.6516 69.6847 42.824 74.4344 43.8124C80.3849 45.0501 87.8281 44.3619 95.9566 41.8214C96.778 41.5636 97.6503 42.0224 97.9081 42.8438C98.1658 43.6651 97.707 44.5375 96.8856 44.7952C91.088 46.6079 85.5821 47.5255 80.6342 47.5255L80.6285 47.5283Z" fill="#316c1d" style="fill:#316c1d;fill:color(display-p3 0.2078 0.4196 0.1059);fill-opacity:1;"/>
<path d="M64.7003 58.4438C55.7589 58.4438 44.9992 56.1922 42.3425 55.2122C41.8299 55.0224 41.5665 54.4532 41.7563 53.9377C41.946 53.4251 42.5153 53.1616 43.0308 53.3514C45.9735 54.4362 59.2482 57.1381 68.3511 56.3083C68.9005 56.2573 69.3792 56.6595 69.4274 57.2061C69.4755 57.7527 69.0761 58.2342 68.5295 58.2824C67.3145 58.3928 66.0287 58.4438 64.7003 58.4438Z" fill="#316c1d" style="fill:#316c1d;fill:color(display-p3 0.2078 0.4196 0.1059);fill-opacity:1;"/>
<path d="M48.9215 41.2039C48.9215 41.2039 49.2755 41.1586 54.0337 41.286C58.7918 41.4135 59.3243 41.776 59.3243 41.776C59.9077 41.8071 60.2136 42.4076 59.9927 42.9485C59.2337 44.7952 57.0245 47.6642 53.8722 47.296C50.8134 46.9392 48.8336 44.1069 48.1539 42.3538C47.933 41.7845 48.3097 41.1699 48.9215 41.2039Z" fill="#316c1d" style="fill:#316c1d;fill:color(display-p3 0.2078 0.4196 0.1059);fill-opacity:1;"/>
<path d="M29.804 37.5334C29.736 37.5334 29.668 37.5277 29.6001 37.5107C29.0648 37.3974 28.7221 36.8735 28.8325 36.3354C29.3197 34.0214 31.019 32.5231 33.1602 32.5146H33.1772C35.1994 32.5146 36.9582 33.8571 37.3633 35.7123C37.4794 36.2476 37.1423 36.7744 36.607 36.8933C36.0718 37.0094 35.545 36.6724 35.426 36.1371C35.1909 35.0608 34.1175 34.5001 33.1772 34.5001H33.1687C32.5909 34.5001 31.1974 34.7266 30.7726 36.746C30.6735 37.2134 30.2628 37.5334 29.804 37.5334Z" fill="#316c1d" style="fill:#316c1d;fill:color(display-p3 0.2078 0.4196 0.1059);fill-opacity:1;"/>
<path d="M74.8849 36.9698C74.8849 36.9698 74.8708 36.9698 74.8651 36.9698C74.3185 36.9585 73.8823 36.5053 73.8937 35.9587C73.9163 34.8541 72.9987 34.0554 72.0782 33.8402C71.5146 33.7071 70.1098 33.6023 69.2261 35.4659C68.991 35.9615 68.4019 36.1711 67.9063 35.9389C67.4106 35.7038 67.201 35.1147 67.4333 34.619C68.4444 32.4835 70.444 31.4186 72.5313 31.9114C74.5054 32.3759 75.913 34.0951 75.8734 36.0012C75.8621 36.5421 75.4202 36.9726 74.8821 36.9726L74.8849 36.9698Z" fill="#316c1d" style="fill:#316c1d;fill:color(display-p3 0.2078 0.4196 0.1059);fill-opacity:1;"/>
</svg>
