<svg width="107" height="107" viewBox="0 0 107 107" fill="none" xmlns="http://www.w3.org/2000/svg">
<path d="M21.4494 105.719C19.0448 105.719 16.7705 103.277 16.7705 100.691C16.7705 98.1056 19.5489 96.8566 22.2934 96.8566C24.7235 96.8566 26.6239 98.8901 26.6239 101.487C26.6239 104.084 23.9474 105.719 21.4494 105.719ZM22.2934 99.264C20.8235 99.264 19.1779 99.8757 19.1779 100.691C19.1779 101.963 20.3448 103.311 21.4494 103.311C22.7296 103.311 24.2165 102.515 24.2165 101.487C24.2165 100.459 23.5424 99.264 22.2934 99.264Z" fill="#F8FFEF" style="fill:#F8FFEF;fill:color(display-p3 0.9725 1.0000 0.9373);fill-opacity:1;"/>
<path d="M101.463 73.802C100.22 73.802 99.005 73.2185 98.042 72.0686C97.0904 70.9301 95.9462 68.6444 98.9739 66.1096C102.002 63.5719 104.052 65.1041 105.004 66.2399C105.8 67.1887 106.205 68.3216 106.148 69.4261C106.086 70.6412 105.494 71.7514 104.434 72.6379C103.503 73.4196 102.469 73.8048 101.461 73.8048L101.463 73.802ZM100.52 67.9534C99.005 69.2222 99.3194 69.8425 99.8887 70.5222C100.515 71.2671 101.543 71.9185 102.894 70.7885C103.432 70.3381 103.721 69.8368 103.746 69.3015C103.772 68.7974 103.568 68.2734 103.16 67.7834C102.61 67.1264 102.033 66.6874 100.52 67.9534Z" fill="#F8FFEF" style="fill:#F8FFEF;fill:color(display-p3 0.9725 1.0000 0.9373);fill-opacity:1;"/>
<path d="M14.7316 96.8508C14.7316 97.7769 13.8026 98.3746 13.0011 98.3746C12.1996 98.3746 11.4858 97.3776 11.4858 96.4514C11.4858 95.5253 12.5649 95.1288 13.3693 95.1288C14.1736 95.1288 14.7316 95.9247 14.7316 96.8508Z" fill="#F8FFEF" style="fill:#F8FFEF;fill:color(display-p3 0.9725 1.0000 0.9373);fill-opacity:1;"/>
<path d="M53.3798 99.1111C52.4423 99.1111 51.4652 98.9185 50.4739 98.5304C47.0865 97.205 45.6676 93.6136 44.9652 90.6964C44.2741 92.9169 43.0053 95.4518 40.7055 96.681C39.0656 97.559 37.1793 97.6298 35.0976 96.8877C31.9793 95.7775 30.4612 92.0956 29.7248 88.5326C28.7505 90.4047 27.3316 91.8633 25.6464 92.6394C23.6242 93.5712 21.4518 93.3984 19.5287 92.1579C16.9344 90.484 15.3568 86.9494 14.5666 81.0385C14.0115 76.8779 13.6405 73.6123 13.5385 66.424C13.4536 60.4395 13.7934 54.9704 14.6658 48.139C15.3936 42.4604 16.6143 37.756 18.7527 32.4059C20.959 26.8915 24.9497 21.7651 27.1333 19.1991C34.3074 10.7703 46.4153 7.73413 52.904 7.73413C52.9465 7.73413 52.9918 7.73413 53.0343 7.73413C56.5066 7.75679 63.4541 8.42803 70.9681 12.6821C78.4339 16.9078 84.1465 23.3597 87.9446 31.8536C90.1311 36.6316 91.4962 42.1913 91.9919 48.3684C92.9492 60.2242 92.8189 69.9615 91.5585 80.9308C90.9808 85.9722 90.2132 89.4644 89.1455 91.9171C87.8341 94.9306 85.9932 96.5677 83.5121 96.9217C79.326 97.5222 77.0971 94.5596 75.8395 91.6934C75.2051 94.5964 73.9929 96.7376 72.2822 97.947C70.6962 99.0657 68.7703 99.3745 66.5554 98.8618C63.3097 98.1113 61.7774 95.9219 60.7606 92.24C59.9365 95.1261 58.4099 97.2758 56.4018 98.352C55.4643 98.8562 54.4447 99.1054 53.3741 99.1054L53.3798 99.1111ZM46.8175 87.6518C47.4632 91.4725 48.463 95.1601 51.3491 96.2901C52.8133 96.8651 54.1332 96.8452 55.2689 96.2363C56.8521 95.3866 58.0927 93.3729 58.6704 90.7078C59.3672 87.4847 60.0158 86.8814 60.9447 86.8956C61.3781 86.9012 62.1428 87.1136 62.3892 88.4618C63.4145 94.0413 64.5162 95.9248 67.1021 96.5224C68.64 96.8792 69.8833 96.7036 70.8973 95.9843C72.4182 94.9108 73.418 92.6167 73.7918 89.3511C73.9873 87.6518 74.1544 86.1847 75.4062 86.0827C75.916 86.043 76.5958 86.2413 76.9328 87.4365C78.4792 92.8971 80.289 94.9561 83.1751 94.5426C86.3104 94.0951 88.1032 89.943 89.171 80.6589C90.4115 69.8539 90.5389 60.2554 89.5958 48.5639C89.12 42.6671 87.8285 37.3793 85.7524 32.8477C76.1511 11.3736 56.8012 10.167 53.0201 10.1444C47.0242 10.0991 35.6584 12.903 28.9686 20.7597C26.8813 23.2124 23.069 28.1037 20.9902 33.298C18.9311 38.4471 17.7529 42.9758 17.0533 48.4421C16.1952 55.1573 15.8638 60.5245 15.9459 66.3901C16.0451 73.448 16.4076 76.6456 16.9514 80.7212C17.6311 85.808 18.9 88.8895 20.8316 90.1356C22.0551 90.9258 23.3693 91.0335 24.6381 90.4529C26.666 89.521 28.2379 87.0003 28.6401 84.0321C28.6401 84.018 28.6429 84.0038 28.6457 83.9897L28.7081 83.6215C28.7449 83.4034 28.7789 83.2051 28.8072 83.0437C28.8978 82.5537 29.0649 81.6389 30.0222 81.5369C30.5688 81.4803 31.0815 81.7918 31.2967 82.3158C31.4553 82.7123 31.5035 83.4289 31.5176 83.6498C31.883 89.6683 33.5229 93.7723 35.9048 94.6219C37.3379 95.1317 38.536 95.1119 39.5669 94.5596C41.5523 93.4975 42.5153 90.6766 42.9146 89.0905C42.9203 89.0707 42.926 89.0537 42.9316 89.0339C42.9854 88.8583 43.0562 88.5807 43.1299 88.2834C43.583 86.4849 43.9456 85.0716 45.2371 85.1424C46.4974 85.216 46.7013 86.7313 46.8203 87.6518H46.8175Z" fill="#F8FFEF" style="fill:#F8FFEF;fill:color(display-p3 0.9725 1.0000 0.9373);fill-opacity:1;"/>
<path d="M16.4675 48.289C13.8449 48.289 11.1146 48.1644 8.2965 47.9095C7.63376 47.85 7.14661 47.2638 7.20609 46.6038C7.26556 45.9439 7.85467 45.4539 8.51176 45.5134C18.9146 46.4509 28.0061 45.6069 34.8035 43.0749C40.1395 41.0866 43.9404 38.0703 45.2291 34.7962C46.158 32.4341 45.6171 30.2419 43.7393 28.7861C38.8876 25.0193 26.6948 26.4892 10.3924 38.2629C9.85424 38.6509 9.10086 38.5319 8.71284 37.991C8.32483 37.4528 8.44378 36.6995 8.98474 36.3114C17.1275 30.4317 24.9586 26.5798 31.6314 25.1694C37.3979 23.9515 42.224 24.5604 45.2206 26.8857C47.9594 29.0127 48.8034 32.301 47.4722 35.677C46.5687 37.974 43.8299 42.2818 35.6476 45.3293C30.3852 47.2892 23.8569 48.289 16.4732 48.289H16.4675Z" fill="#F8FFEF" style="fill:#F8FFEF;fill:color(display-p3 0.9725 1.0000 0.9373);fill-opacity:1;"/>
<path d="M80.5813 46.6605C70.8214 46.6605 64.5989 43.0805 61.8176 38.886C60.6168 37.0761 60.0163 35.0936 60.0758 33.1535C60.1381 31.1709 60.8858 29.3243 62.234 27.809C64.6697 25.0787 68.8756 23.6569 74.0728 23.807C80.114 23.9798 87.2484 26.1437 95.2807 30.2448C95.8726 30.5478 96.1077 31.2729 95.8047 31.8648C95.5016 32.4567 94.7765 32.6918 94.1846 32.3888C83.7846 27.0811 69.646 23.116 64.0268 29.4121C62.0414 31.6354 61.9621 34.7565 63.82 37.5548C65.8848 40.6674 69.8612 42.8794 75.0159 43.7857C81.448 44.9158 89.4831 43.933 98.2461 40.9393C98.8748 40.7241 99.5602 41.0611 99.7755 41.6899C99.9907 42.3186 99.6537 43.004 99.0249 43.2193C91.8792 45.6579 85.7332 46.6605 80.5756 46.6605H80.5813Z" fill="#F8FFEF" style="fill:#F8FFEF;fill:color(display-p3 0.9725 1.0000 0.9373);fill-opacity:1;"/>
<path d="M56.6345 59.583C48.8561 59.0841 43.1304 58.0868 38.3861 57.0985C37.7364 56.9632 37.3174 56.3261 37.453 55.6736C37.5883 55.0238 38.2252 54.6077 38.8779 54.7404C45.7421 56.174 54.7113 57.6206 69.1708 57.4951C69.8298 57.4863 70.3799 58.0239 70.3856 58.6884C70.3912 59.3529 69.8567 59.8976 69.1923 59.9032C64.47 59.9437 60.323 59.8196 56.6345 59.583Z" fill="#F8FFEF" style="fill:#F8FFEF;fill:color(display-p3 0.9725 1.0000 0.9373);fill-opacity:1;"/>
<path d="M54.1706 47.5894C53.9724 47.5894 53.7713 47.5781 53.5673 47.5554C50.2904 47.1731 48.3163 44.2247 47.6649 42.5423C47.4214 41.9107 47.5063 41.2168 47.8972 40.6815C48.2597 40.1831 48.8347 39.8998 49.4578 39.914C49.9732 39.897 51.4545 39.9197 53.8789 39.9848C57 40.0698 58.1896 40.2709 58.6994 40.4351C59.2148 40.5258 59.6624 40.8232 59.9456 41.2735C60.2826 41.8059 60.3364 42.48 60.09 43.0776C59.1639 45.3264 56.9576 47.5922 54.1734 47.5922L54.1706 47.5894ZM50.2111 42.3158C50.8286 43.4515 52.0719 44.9554 53.8449 45.1622C55.6944 45.3774 57.0284 43.7177 57.6175 42.65C57.153 42.5735 56.0796 42.4517 53.8109 42.3894C51.868 42.3356 50.7974 42.3186 50.2083 42.3129L50.2111 42.3158Z" fill="#F8FFEF" style="fill:#F8FFEF;fill:color(display-p3 0.9725 1.0000 0.9373);fill-opacity:1;"/>
<path d="M29.6404 37.246C29.5583 37.246 29.4762 37.2375 29.3912 37.2205C28.7398 37.0846 28.3234 36.4445 28.4622 35.7959C28.9692 33.38 30.7507 31.8166 32.9967 31.8081H33.0137C35.135 31.8081 36.9788 33.2214 37.4065 35.1728C37.5481 35.8214 37.1374 36.4643 36.486 36.6059C35.8374 36.7476 35.1945 36.3369 35.0529 35.6855C34.8405 34.7197 33.869 34.2155 33.0108 34.2155H33.0023C32.4755 34.2155 31.2067 34.4251 30.813 36.2916C30.694 36.858 30.1927 37.2489 29.6376 37.2489L29.6404 37.246Z" fill="#F8FFEF" style="fill:#F8FFEF;fill:color(display-p3 0.9725 1.0000 0.9373);fill-opacity:1;"/>
<path d="M74.7211 36.6825C74.7211 36.6825 74.7041 36.6825 74.6956 36.6825C74.03 36.6683 73.5032 36.1189 73.5174 35.4561C73.5372 34.462 72.7017 33.7454 71.8662 33.5472C71.3536 33.4254 70.0706 33.3319 69.2549 35.0568C68.9716 35.6572 68.2523 35.9149 67.6518 35.6289C67.0514 35.3457 66.7936 34.6263 67.0797 34.0258C68.1361 31.7968 70.232 30.6866 72.4185 31.2021C74.4889 31.6892 75.9645 33.4962 75.9248 35.5014C75.9107 36.1585 75.3754 36.6825 74.7211 36.6825Z" fill="#F8FFEF" style="fill:#F8FFEF;fill:color(display-p3 0.9725 1.0000 0.9373);fill-opacity:1;"/>
</svg>
