<svg width="24" height="24" viewBox="0 0 24 24" fill="none" xmlns="http://www.w3.org/2000/svg">
  <path
    fill="currentColor"
    d="M9.0498 5.9002C9.62968 5.90019 10.0996 6.37012 10.0996 6.95C10.0995 7.52976 9.62961 7.99978 9.0498 7.9998H6.7168C5.82397 7.99985 5.14961 8.67416 5.09961 9.61699V17.284C5.09996 18.1754 5.825 18.9002 6.71875 18.9002H14.3809C15.3246 18.8502 15.9996 18.1754 16 17.284V14.95C16.0001 14.3702 16.47 13.9002 17.0498 13.9002C17.6296 13.9002 18.0995 14.3702 18.0996 14.95V17.284C18.0993 19.3375 16.4822 20.9498 14.3809 20.9998H6.71875C4.66742 20.9998 3.00035 19.3375 3 17.284V9.61699C3 7.56456 4.66345 5.90055 6.71582 5.9002H9.0498Z"
  />
  <path
    fill="currentColor"
    d="M20.9998 12C20.9998 12.5522 20.552 12.9999 19.9998 13C19.4475 13 18.9998 12.5523 18.9998 12V6.41406L10.7068 14.707C10.3163 15.0975 9.6833 15.0975 9.29277 14.707C8.90225 14.3165 8.90225 13.6835 9.29277 13.293L17.5857 5H11.9998C11.4475 5 10.9998 4.55228 10.9998 4C10.9998 3.44772 11.4475 3 11.9998 3H20.9998V12Z"
  />
</svg>
