<svg width="24" height="24" viewBox="0 0 24 24" fill="none" xmlns="http://www.w3.org/2000/svg">
<path fill-rule="evenodd" clip-rule="evenodd" d="M3 7C3 6.44769 3.44775 6 4 6H20C20.5522 6 21 6.44769 21 7C21 7.55231 20.5522 8 20 8H4C3.44775 8 3 7.55231 3 7ZM3 12C3 11.4477 3.44775 11 4 11H20C20.5522 11 21 11.4477 21 12C21 12.5523 20.5522 13 20 13H4C3.44775 13 3 12.5523 3 12ZM4 16C3.44775 16 3 16.4477 3 17C3 17.5523 3.44775 18 4 18H20C20.5522 18 21 17.5523 21 17C21 16.4477 20.5522 16 20 16H4Z" fill="#191C1C"/>
</svg>
